<svg id="Ebene_1" data-name="Ebene 1" xmlns="http://www.w3.org/2000/svg" xmlns:xlink="http://www.w3.org/1999/xlink" viewBox="0 0 461.327 148.859"><defs><style>.cls-1{fill:none;}.cls-2{fill:#1e6eb9;}.cls-3{fill:#cd6b3c;}.cls-4{fill:#f0b45a;}.cls-5{clip-path:url(#clip-path);}.cls-6{fill:#e67d41;}</style><clipPath id="clip-path" transform="translate(-18.25 -22.554)"><rect class="cls-1" x="18" y="15" width="481.89" height="170.079"/></clipPath></defs><path class="cls-2" d="M212.658,169.187a5.608,5.608,0,0,0,2.54-2.553,9.322,9.322,0,0,0,.86-4.222v-8.468a2.023,2.023,0,0,0-.486-1.469,1.878,1.878,0,0,0-1.407-.5,1.921,1.921,0,0,0-1.42.5,1.993,1.993,0,0,0-.5,1.469v8.493a4.742,4.742,0,0,1-.959,3.226,3.545,3.545,0,0,1-2.8,1.083,3.583,3.583,0,0,1-2.814-1.083,4.7,4.7,0,0,1-.972-3.226v-8.493a1.993,1.993,0,0,0-.5-1.469,1.921,1.921,0,0,0-1.42-.5,1.955,1.955,0,0,0-1.444.5,1.993,1.993,0,0,0-.5,1.469v8.468a10.372,10.372,0,0,0,.485,3.325,5.913,5.913,0,0,0,1.457,2.379,6.275,6.275,0,0,0,2.4,1.432,10.261,10.261,0,0,0,3.3.486,9.229,9.229,0,0,0,4.172-.847Zm16.55.461a6.878,6.878,0,0,0,2.266-1.109,4.872,4.872,0,0,0,1.445-1.731,5.018,5.018,0,0,0,.5-2.254,4.056,4.056,0,0,0-1.195-3.051,7.364,7.364,0,0,0-3.637-1.681l-2.814-.6a4.2,4.2,0,0,1-1.818-.722,1.468,1.468,0,0,1-.523-1.171,1.814,1.814,0,0,1,.386-1.145,2.457,2.457,0,0,1,1.12-.772,5.11,5.11,0,0,1,1.781-.274,8.916,8.916,0,0,1,1.893.2,7.024,7.024,0,0,1,1.744.623,1.829,1.829,0,0,0,1.145.224,1.41,1.41,0,0,0,.785-.449,1.486,1.486,0,0,0,.373-.809,1.785,1.785,0,0,0-.124-.922,1.581,1.581,0,0,0-.685-.759,8,8,0,0,0-2.366-.984,11.265,11.265,0,0,0-2.74-.336,9.85,9.85,0,0,0-2.876.4,6.786,6.786,0,0,0-2.254,1.146,5.338,5.338,0,0,0-1.47,1.768,4.9,4.9,0,0,0-.523,2.267,4.395,4.395,0,0,0,1.158,3.175,6.68,6.68,0,0,0,3.549,1.706l2.815.6a5.057,5.057,0,0,1,1.917.722,1.372,1.372,0,0,1,.548,1.146,1.679,1.679,0,0,1-.772,1.407,4.532,4.532,0,0,1-2.59.561,10.811,10.811,0,0,1-2.4-.274,8.254,8.254,0,0,1-2.229-.847,1.606,1.606,0,0,0-1.084-.187,1.4,1.4,0,0,0-.8.5,1.724,1.724,0,0,0-.374.884,1.79,1.79,0,0,0,.162.984,1.724,1.724,0,0,0,.772.785,8.263,8.263,0,0,0,1.756.747,14.846,14.846,0,0,0,4.2.623,10.564,10.564,0,0,0,2.964-.386Zm10.6-.187a2.079,2.079,0,0,0,.486-1.47v-4.558h4.159a6.38,6.38,0,0,0,4.533-1.494,6.142,6.142,0,0,0,0-8.256,6.413,6.413,0,0,0-4.533-1.482H238.4a2,2,0,0,0-1.457.5,1.964,1.964,0,0,0-.51,1.469v13.823a2.043,2.043,0,0,0,.5,1.47,1.9,1.9,0,0,0,1.444.523,1.861,1.861,0,0,0,1.432-.523Zm.486-14.247H243.8a3.5,3.5,0,0,1,2.279.648,2.373,2.373,0,0,1,.784,1.943,2.447,2.447,0,0,1-.784,1.967,3.407,3.407,0,0,1-2.279.673h-3.512v-5.231Zm26.5,14.546a1,1,0,0,0,.71-.225.885.885,0,0,0,.236-.672.811.811,0,0,0-.236-.635,1.039,1.039,0,0,0-.71-.212H258.4v.573l5.305-5.6a14.512,14.512,0,0,0,1.781-2.167,8.887,8.887,0,0,0,1.021-2.055,6.43,6.43,0,0,0,.337-2.054,5,5,0,0,0-.623-2.578,3.944,3.944,0,0,0-1.843-1.607,7.289,7.289,0,0,0-2.989-.547,8.283,8.283,0,0,0-2.789.485,7.731,7.731,0,0,0-2.342,1.283,1.02,1.02,0,0,0-.386.5.948.948,0,0,0-.012.548.889.889,0,0,0,.274.448.789.789,0,0,0,.461.2.851.851,0,0,0,.585-.224,6.7,6.7,0,0,1,1.918-1.071,6.374,6.374,0,0,1,2.117-.348,3.951,3.951,0,0,1,2.652.784,2.847,2.847,0,0,1,.909,2.279,5.347,5.347,0,0,1-.56,2.354,10.774,10.774,0,0,1-1.831,2.528l-5.579,5.977a2.591,2.591,0,0,0-.386.536,1.144,1.144,0,0,0-.137.535.96.96,0,0,0,.262.71,1.1,1.1,0,0,0,.809.262Zm13.15-.81a6.245,6.245,0,0,0,2.067-3.051,15.293,15.293,0,0,0,.7-4.956q0-4.409-1.557-6.688a5.206,5.206,0,0,0-4.6-2.278A5.52,5.52,0,0,0,273.179,153a6.128,6.128,0,0,0-2.08,3.026,15.184,15.184,0,0,0-.7,4.944,11.926,11.926,0,0,0,1.569,6.7,5.186,5.186,0,0,0,4.583,2.317,5.462,5.462,0,0,0,3.387-1.034Zm-6.476-2.515a11.4,11.4,0,0,1-1.021-5.492,11.175,11.175,0,0,1,1.021-5.455,3.626,3.626,0,0,1,6.19-.012,11.287,11.287,0,0,1,1.008,5.467,11.535,11.535,0,0,1-1.008,5.492,3.581,3.581,0,0,1-6.19,0Zm21,2.939a4.661,4.661,0,0,0,2.03-1.719,4.77,4.77,0,0,0,.71-2.628,4.425,4.425,0,0,0-1.009-2.976,4.532,4.532,0,0,0-2.827-1.482v.274a4.445,4.445,0,0,0,1.781-.9,4.361,4.361,0,0,0,1.146-1.507,4.579,4.579,0,0,0,.411-1.955,4.4,4.4,0,0,0-.648-2.429,4.126,4.126,0,0,0-1.855-1.544,7.134,7.134,0,0,0-2.9-.535,8.689,8.689,0,0,0-2.765.448,6.993,6.993,0,0,0-2.341,1.295,1.187,1.187,0,0,0-.423.535.865.865,0,0,0-.013.561.939.939,0,0,0,.274.436.749.749,0,0,0,.474.174.9.9,0,0,0,.585-.212,6.324,6.324,0,0,1,1.968-1.1,6.823,6.823,0,0,1,2.117-.323,4,4,0,0,1,2.59.734,2.594,2.594,0,0,1,.9,2.13,3.357,3.357,0,0,1-.448,1.781,2.97,2.97,0,0,1-1.258,1.133,4.383,4.383,0,0,1-1.955.4H289.4a1.008,1.008,0,0,0-.722.237.836.836,0,0,0-.249.635.865.865,0,0,0,.249.66,1.008,1.008,0,0,0,.722.237h1.769a4.739,4.739,0,0,1,2.963.8,2.789,2.789,0,0,1,1.022,2.341,3.407,3.407,0,0,1-.449,1.806,2.773,2.773,0,0,1-1.32,1.108,5.439,5.439,0,0,1-2.142.374,7.948,7.948,0,0,1-2.266-.324,8.226,8.226,0,0,1-2.192-1.046,1.023,1.023,0,0,0-.635-.2.789.789,0,0,0-.486.211.879.879,0,0,0-.261.449.958.958,0,0,0,.037.547,1.05,1.05,0,0,0,.424.511,7.556,7.556,0,0,0,2.528,1.245,10.361,10.361,0,0,0,2.9.424,7.5,7.5,0,0,0,3.163-.61Zm15.367-.424A6.245,6.245,0,0,0,311.9,165.9a15.293,15.293,0,0,0,.7-4.956q0-4.409-1.557-6.688a5.206,5.206,0,0,0-4.6-2.278A5.52,5.52,0,0,0,303.066,153a6.135,6.135,0,0,0-2.08,3.026,15.184,15.184,0,0,0-.7,4.944,11.926,11.926,0,0,0,1.569,6.7,5.186,5.186,0,0,0,4.583,2.317,5.462,5.462,0,0,0,3.387-1.034Zm-6.476-2.515a11.4,11.4,0,0,1-1.021-5.492,11.175,11.175,0,0,1,1.021-5.455,3.626,3.626,0,0,1,6.19-.012,11.287,11.287,0,0,1,1.008,5.467,11.535,11.535,0,0,1-1.008,5.492,3.581,3.581,0,0,1-6.19,0Z" transform="translate(-18.25 -22.554)"/><path class="cls-2" d="M225.573,123.155a2.281,2.281,0,0,0-.754-1.678,2.389,2.389,0,0,0-1.7-.732q-1.329,0-1.756,1.554-2.365,5.788-8.874,5.788a10.7,10.7,0,0,1-5.607-1.554q-5.046-3.016-5.045-12.048a19.949,19.949,0,0,1,1.036-6.351,9.24,9.24,0,0,1,3.806-5.045,11.045,11.045,0,0,1,6.148-1.666,8.335,8.335,0,0,1,7.928,4.706,1.573,1.573,0,0,0,1.486.879,2.644,2.644,0,0,0,1.745-.676,2.035,2.035,0,0,0,.8-1.6,1.356,1.356,0,0,0-.158-.653q-3.513-6.4-11.711-6.4a16.4,16.4,0,0,0-8,1.982q-7.589,4.167-7.589,14.841a22.424,22.424,0,0,0,1.757,8.851q3.581,8.467,13.76,8.468,9.053,0,12.589-7.9a1.842,1.842,0,0,0,.135-.766Zm24.795-12.907a10.49,10.49,0,0,0-8.356-3.443,11.135,11.135,0,0,0-7.522,2.655q-3.693,3.2-3.693,9.833,0,5.648,2.725,8.933,2.928,3.555,8.49,3.555a11.81,11.81,0,0,0,5.788-1.463q5.406-2.993,5.405-11.363a12.856,12.856,0,0,0-2.837-8.707ZM247.525,125.5a6.059,6.059,0,0,1-5.513,2.947,6.127,6.127,0,0,1-5.512-2.88,13.364,13.364,0,0,1,0-12.528A6.682,6.682,0,0,1,247.457,113a10.9,10.9,0,0,1,1.6,6.163,11.785,11.785,0,0,1-1.536,6.343Zm30.925-6.062q0-7.95-4.651-10.9a9.279,9.279,0,0,0-5.078-1.486,8.6,8.6,0,0,0-7.662,3.941,15.466,15.466,0,0,0-2.2,8.67v10.7q0,1.284,1.982,1.284,2.072,0,2.072-1.284v-11.08a11.2,11.2,0,0,1,.946-5.27,5.439,5.439,0,0,1,9.684.067,12.22,12.22,0,0,1,.855,5.405v11.081q0,1.282,1.982,1.283,2.072,0,2.072-1.283V119.439Zm15.613,5.906L287.5,107.953a2.3,2.3,0,0,0-2.253-1.351,3.232,3.232,0,0,0-1.284.271q-.787.315-.788.878a.535.535,0,0,0,.045.2l8.85,22.633q.427,1.082,2.073,1.081a1.665,1.665,0,0,0,1.712-1.081l8.9-22.768a.564.564,0,0,0,.067-.248q0-.879-1.889-.878-1.911,0-2.338,1.128l-6.531,17.524ZM329.1,113.516a8.824,8.824,0,0,0-2-3.445,11.229,11.229,0,0,0-16.26.447,13.84,13.84,0,0,0-2.747,8.977q0,5.6,2.86,8.843,3.018,3.443,8.535,3.443a11.51,11.51,0,0,0,6.4-1.707,8.777,8.777,0,0,0,3.784-5.3,1.066,1.066,0,0,0,.045-.292q0-1.236-2.1-1.236a2.228,2.228,0,0,0-2.139,1.01,5.829,5.829,0,0,1-5.968,4.193,6.393,6.393,0,0,1-5.225-2.337,9.229,9.229,0,0,1-1.937-5.5l17.341-1.034a2.589,2.589,0,0,1,.034-.337,2.432,2.432,0,0,0,.034-.338,30.535,30.535,0,0,0-.653-5.383Zm-16.6,3.491a7.57,7.57,0,0,1,1.982-4.887,6.283,6.283,0,0,1,4.819-1.982,6.213,6.213,0,0,1,5.022,2.342,6.74,6.74,0,0,1,1.307,3.739l-13.13.788Zm34.141-10.247a8.024,8.024,0,0,0-6.554,3.22v-1.486q0-1.216-1.97-1.216-2.264,0-2.264,1.171v22.363q0,1.059,1.869,1.059,2.073,0,2.185-1.059V120.25q0-.2-.023-.608t-.022-.608a11.546,11.546,0,0,1,1.351-5.946,5.6,5.6,0,0,1,5.067-2.995,2.7,2.7,0,0,1,2.455.991.731.731,0,0,0,.541.2,2.089,2.089,0,0,0,1.531-.732,2.244,2.244,0,0,0,.7-1.565,1.922,1.922,0,0,0-.743-1.464q-.879-.765-4.121-.766Zm28.443,1.283q0-1.238-1.78-1.238-1.959,0-1.959,1.231v2.192a8.574,8.574,0,0,0-6.981-3.423,9.646,9.646,0,0,0-5.518,1.577Q354,111.624,354,119.169a13.343,13.343,0,0,0,2.567,8.423,9.25,9.25,0,0,0,7.77,3.671,8.338,8.338,0,0,0,6.621-3.131,25.547,25.547,0,0,1-.292,5.2q-1.127,4.278-6.869,4.279a7.63,7.63,0,0,1-4.572-1.126q-.113-.091-.923-1.036a1.578,1.578,0,0,0-1.284-.541,2.821,2.821,0,0,0-1.532.473,1.534,1.534,0,0,0-.855,1.284.844.844,0,0,0,.157.5q2.117,3.805,9.031,3.806,8.6,0,10.585-6.324a23.892,23.892,0,0,0,.676-6.617V108.043ZM370.6,122.367a6.063,6.063,0,0,1-.7,2.68,5.65,5.65,0,0,1-5.189,2.86A5.589,5.589,0,0,1,359.5,125a12.08,12.08,0,0,1-1.354-6.126A11.02,11.02,0,0,1,359.592,113a5.578,5.578,0,0,1,5.054-2.837,5.727,5.727,0,0,1,5.166,2.86,6.038,6.038,0,0,1,.79,2.7q.023.271.022,3.288t-.022,3.356Zm31.19-8.851a8.81,8.81,0,0,0-2-3.445,11.229,11.229,0,0,0-16.26.447,13.84,13.84,0,0,0-2.748,8.977q0,5.6,2.861,8.843,3.016,3.443,8.535,3.443a11.515,11.515,0,0,0,6.4-1.707,8.771,8.771,0,0,0,3.783-5.3,1.069,1.069,0,0,0,.046-.292q0-1.236-2.1-1.236a2.228,2.228,0,0,0-2.139,1.01,5.83,5.83,0,0,1-5.968,4.193,6.393,6.393,0,0,1-5.225-2.337,9.223,9.223,0,0,1-1.937-5.5l17.341-1.034a2.421,2.421,0,0,1,.034-.337,2.6,2.6,0,0,0,.034-.338,30.5,30.5,0,0,0-.654-5.383Zm-16.6,3.491a7.569,7.569,0,0,1,1.981-4.887,6.285,6.285,0,0,1,4.82-1.982,6.213,6.213,0,0,1,5.022,2.342,6.732,6.732,0,0,1,1.306,3.739l-13.129.788Zm43.081,2.432q0-7.95-4.651-10.9a9.282,9.282,0,0,0-5.078-1.486,8.6,8.6,0,0,0-7.662,3.941,15.466,15.466,0,0,0-2.2,8.67v10.7q0,1.284,1.982,1.284,2.071,0,2.072-1.284v-11.08a11.2,11.2,0,0,1,.946-5.27,5.439,5.439,0,0,1,9.684.067,12.22,12.22,0,0,1,.855,5.405v11.081q0,1.282,1.982,1.283,2.071,0,2.072-1.283V119.439Zm25.9,6.121a1.711,1.711,0,0,0-.789-1.381,2.645,2.645,0,0,0-1.6-.6,1.486,1.486,0,0,0-1.33.762,5.394,5.394,0,0,1-5.615,4.1q-6.677,0-6.676-9.178,0-9.132,6.9-9.132a4.87,4.87,0,0,1,4.737,2.725.876.876,0,0,0,.79.428,2.9,2.9,0,0,0,1.7-.721,1.951,1.951,0,0,0,.936-1.463.449.449,0,0,0-.045-.2q-2.521-4.1-8.265-4.1a11.611,11.611,0,0,0-5.7,1.44q-5.2,2.88-5.2,11.138,0,5.513,2.635,8.8,2.859,3.6,8.243,3.6a9.217,9.217,0,0,0,9.03-5.592.9.9,0,0,0,.248-.629Zm24.75-12.044a8.824,8.824,0,0,0-2-3.445,11.229,11.229,0,0,0-16.26.447,13.84,13.84,0,0,0-2.747,8.977q0,5.6,2.86,8.843,3.018,3.443,8.535,3.443a11.512,11.512,0,0,0,6.4-1.707,8.777,8.777,0,0,0,3.784-5.3,1.066,1.066,0,0,0,.045-.292q0-1.236-2.095-1.236a2.228,2.228,0,0,0-2.139,1.01,5.829,5.829,0,0,1-5.968,4.193,6.393,6.393,0,0,1-5.225-2.337,9.229,9.229,0,0,1-1.937-5.5l17.341-1.034a2.421,2.421,0,0,1,.034-.337,2.432,2.432,0,0,0,.034-.338,30.535,30.535,0,0,0-.653-5.383Zm-16.6,3.491a7.564,7.564,0,0,1,1.982-4.887,6.283,6.283,0,0,1,4.819-1.982,6.213,6.213,0,0,1,5.022,2.342,6.732,6.732,0,0,1,1.306,3.739l-13.129.788Z" transform="translate(-18.25 -22.554)"/><path class="cls-2" d="M224.132,51.368q-2.456-6.531-8.761-8a27.534,27.534,0,0,0-5.878-.473H198.571V75.915h11.463a22.434,22.434,0,0,0,5.315-.563,11.708,11.708,0,0,0,7.882-6.125,20.87,20.87,0,0,0,2.184-10,22.176,22.176,0,0,0-1.283-7.86Zm-6.509,18.35q-2.319,2.323-8.085,2.324h-6.6V46.773h6.486a17.055,17.055,0,0,1,5.652.677q5.834,2.256,5.833,11.71,0,7.264-3.288,10.558ZM235.144,43.2a2.374,2.374,0,0,0-1.757-.732,2.332,2.332,0,0,0-1.745.732,2.448,2.448,0,0,0-.71,1.768,2.486,2.486,0,0,0,.71,1.779,2.317,2.317,0,0,0,1.745.743,2.358,2.358,0,0,0,1.757-.743,2.467,2.467,0,0,0,.72-1.779,2.429,2.429,0,0,0-.72-1.768Zm.382,9.92q0-1.283-2.072-1.283-1.981,0-1.981,1.283V75.24q0,1.057,1.869,1.058,2.071,0,2.184-1.058V53.124Zm26.619-.428q0-1.237-1.779-1.238-1.959,0-1.959,1.23v2.193a8.575,8.575,0,0,0-6.982-3.423,9.642,9.642,0,0,0-5.517,1.576q-4.843,3.243-4.842,10.788a13.339,13.339,0,0,0,2.567,8.423,9.248,9.248,0,0,0,7.77,3.67,8.338,8.338,0,0,0,6.621-3.13,25.508,25.508,0,0,1-.293,5.2q-1.126,4.28-6.869,4.279a7.623,7.623,0,0,1-4.572-1.126q-.112-.09-.923-1.036a1.577,1.577,0,0,0-1.284-.54,2.81,2.81,0,0,0-1.531.473,1.533,1.533,0,0,0-.856,1.283.846.846,0,0,0,.158.5q2.116,3.805,9.031,3.806,8.6,0,10.584-6.324a23.853,23.853,0,0,0,.676-6.617V52.7ZM257.663,67.02a6.063,6.063,0,0,1-.7,2.68,5.651,5.651,0,0,1-5.189,2.86,5.591,5.591,0,0,1-5.212-2.905,12.1,12.1,0,0,1-1.354-6.126,11.02,11.02,0,0,1,1.444-5.878,5.578,5.578,0,0,1,5.054-2.838,5.73,5.73,0,0,1,5.167,2.861,6.03,6.03,0,0,1,.789,2.7q.022.27.023,3.288t-.023,3.356ZM272.887,43.2a2.374,2.374,0,0,0-1.757-.732,2.334,2.334,0,0,0-1.745.732,2.448,2.448,0,0,0-.71,1.768,2.486,2.486,0,0,0,.71,1.779,2.318,2.318,0,0,0,1.745.743,2.358,2.358,0,0,0,1.757-.743,2.467,2.467,0,0,0,.72-1.779,2.429,2.429,0,0,0-.72-1.768Zm.383,9.92q0-1.283-2.072-1.283-1.983,0-1.982,1.283V75.24q0,1.057,1.869,1.058,2.072,0,2.185-1.058V53.124Zm16.754,1.25q0-1.7-1.058-1.7h-3.851V45.9q0-1.194-2.05-1.171-1.981.023-1.982,1.351v6.6h-1.621q-.991,0-.991,1.791,0,1.609.991,1.61h1.621V74.993q0,1.328,2.095,1.328,1.937,0,1.937-1.328V56.075h3.851q1.058,0,1.058-1.7Zm23.353-2.241q0-1.125-2.072-1.126-1.959,0-1.959,1.126v2.613a7.7,7.7,0,0,0-6.6-3.288,9.557,9.557,0,0,0-5.337,1.557Q292.636,56.128,292.636,64a15.272,15.272,0,0,0,1.328,6.5,10.676,10.676,0,0,0,3.638,4.377,9.151,9.151,0,0,0,5.326,1.624,7.415,7.415,0,0,0,6.688-3.6v2.567q0,1.035,1.734,1.036,2.028,0,2.027-1.036V52.133Zm-5.069,18.145a5.458,5.458,0,0,1-5.009,2.89,5.544,5.544,0,0,1-5.1-3.048A12.225,12.225,0,0,1,296.779,64a12.919,12.919,0,0,1,1.286-6.141,5.36,5.36,0,0,1,5.054-3.048A5.588,5.588,0,0,1,308.353,58a13.365,13.365,0,0,1,1.331,6.344,11.679,11.679,0,0,1-1.376,5.937Zm16.329-26.027q0-1.237-.766-1.239a2.929,2.929,0,0,0-2.252,1.532,4.569,4.569,0,0,0-1.036,2.635v27.61q0,1.533,2.117,1.532,1.936,0,1.937-1.532V44.251Z" transform="translate(-18.25 -22.554)"/><path class="cls-2" d="M74.379,128.09a32.8,32.8,0,0,1-15.768-3.934,1.19,1.19,0,1,1,1.143-2.088,31.97,31.97,0,0,0,24.107,2.308,1.19,1.19,0,1,1,.646,2.29,37.43,37.43,0,0,1-10.128,1.424" transform="translate(-18.25 -22.554)"/><path class="cls-2" d="M89.455,124.8a1.189,1.189,0,0,1-.488-2.274,38.995,38.995,0,0,0,11.63-8.039,36.828,36.828,0,0,0,11.172-28.207,1.192,1.192,0,0,1,2.38-.151,39.2,39.2,0,0,1-11.867,30.04,41.324,41.324,0,0,1-12.34,8.527,1.186,1.186,0,0,1-.487.1" transform="translate(-18.25 -22.554)"/><path class="cls-2" d="M112.094,81.721a1.192,1.192,0,0,1-1.157-.907,29.175,29.175,0,0,0-2.742-7.079,1.191,1.191,0,0,1,2.092-1.141,31.6,31.6,0,0,1,2.966,7.654,1.191,1.191,0,0,1-.875,1.439,1.2,1.2,0,0,1-.284.034" transform="translate(-18.25 -22.554)"/><path class="cls-2" d="M67.494,90.382a1.191,1.191,0,0,1-1.189-1.126,34.669,34.669,0,0,1,.584-8.634,1.192,1.192,0,0,1,2.338.464,32.328,32.328,0,0,0-.542,8.043,1.189,1.189,0,0,1-1.126,1.251l-.065,0" transform="translate(-18.25 -22.554)"/><path class="cls-2" d="M84.756,123.97a1.2,1.2,0,0,1-.8-.308c-.711-.644-1.42-1.317-2.1-2-7.624-7.605-12.878-17.032-14.8-26.544a1.192,1.192,0,0,1,2.338-.469c1.825,9.057,6.848,18.054,14.143,25.332.656.654,1.336,1.3,2.019,1.919a1.189,1.189,0,0,1-.8,2.07" transform="translate(-18.25 -22.554)"/><path class="cls-2" d="M116.305,137.23c-9.386,0-19.273-3.522-28.014-10.01a1.191,1.191,0,1,1,1.423-1.909,50.31,50.31,0,0,0,13.987,7.382,39.137,39.137,0,0,0,14.024,2.129,1.19,1.19,0,1,1,.1,2.377c-.5.021-1.011.031-1.518.031" transform="translate(-18.25 -22.554)"/><path class="cls-2" d="M128.758,92.582a1.188,1.188,0,0,1-.781-.292,37.658,37.658,0,0,0-13.07-7.236,1.19,1.19,0,1,1,.743-2.26,40.006,40.006,0,0,1,13.89,7.7,1.19,1.19,0,0,1-.782,2.088" transform="translate(-18.25 -22.554)"/><path class="cls-2" d="M70.026,91.756a1.189,1.189,0,0,1-.657-2.183A55.426,55.426,0,0,1,84.5,82.624a54.736,54.736,0,0,1,25.731-1.249,1.189,1.189,0,1,1-.468,2.332,52.341,52.341,0,0,0-24.6,1.2A53.046,53.046,0,0,0,70.68,91.56a1.184,1.184,0,0,1-.654.2" transform="translate(-18.25 -22.554)"/><path class="cls-2" d="M56.571,104.69a1.19,1.19,0,0,1-.98-1.864,48.467,48.467,0,0,1,9.224-9.91,1.191,1.191,0,1,1,1.513,1.839,46.092,46.092,0,0,0-8.774,9.421,1.193,1.193,0,0,1-.983.514" transform="translate(-18.25 -22.554)"/><path class="cls-2" d="M67.675,95.808a3.722,3.722,0,1,1,3.73-3.722,3.73,3.73,0,0,1-3.73,3.722m0-5.064a1.343,1.343,0,1,0,1.345,1.342,1.345,1.345,0,0,0-1.345-1.342" transform="translate(-18.25 -22.554)"/><path class="cls-2" d="M112.709,87.005a3.722,3.722,0,1,1,3.73-3.722,3.731,3.731,0,0,1-3.73,3.722m0-5.064a1.343,1.343,0,1,0,1.346,1.342,1.345,1.345,0,0,0-1.346-1.342" transform="translate(-18.25 -22.554)"/><path class="cls-2" d="M86.722,128.4a3.721,3.721,0,1,1,3.73-3.721,3.729,3.729,0,0,1-3.73,3.721m0-5.063a1.343,1.343,0,1,0,1.345,1.342,1.346,1.346,0,0,0-1.345-1.342" transform="translate(-18.25 -22.554)"/><path class="cls-2" d="M118.785,139.083a1.193,1.193,0,0,1-.885-.391,3.726,3.726,0,0,1,5.533-4.993,1.191,1.191,0,0,1-1.769,1.6,1.344,1.344,0,0,0-2,1.8,1.189,1.189,0,0,1-.883,1.987" transform="translate(-18.25 -22.554)"/><path class="cls-3" d="M139.833,63.293s12.053,23.194,1.222,49.185c-10.728,25.745-27.306,31.365-27.306,31.365s-8.233,5.186-3,14.1c0,0,5.408,6.6,12.182,3.49a60.856,60.856,0,0,0,23.275-17.945c.562-1.481,1.3-4.921-.518-11.314-1.372-4.817,5.665-4.777,5.665-4.777a6.38,6.38,0,0,0,4.426-2.8c.484-1.561,1.07-2.973,1.46-4.663,0,0,7.932-34.616-17.406-56.639Z" transform="translate(-18.25 -22.554)"/><path class="cls-3" d="M169.731,142.145a9.85,9.85,0,1,0-11.683,7.574,9.83,9.83,0,0,0,11.683-7.574" transform="translate(-18.25 -22.554)"/><path class="cls-4" d="M127.744,56.49a53.024,53.024,0,0,0-25.2-12.746c-1.642.106-5.018.845-10.04,4.944-3.885,3.17-6.644-3.29-6.644-3.29a7.1,7.1,0,0,0-2.921-2.647c-2.579.192-5.114.341-7.965.8,0,0-35.475,7.243-44.381,43.874,0,0,15.378-22.3,44.059-24.726,25.22-2.137,40.583,9.961,40.583,9.961s8.22,5.229,14.078-3.3c0,0,4.149-8.07-1.566-12.866Z" transform="translate(-18.25 -22.554)"/><path class="cls-4" d="M89.866,22.817a9.83,9.83,0,1,0,11.844,7.32,9.828,9.828,0,0,0-11.844-7.32" transform="translate(-18.25 -22.554)"/><g class="cls-5"><path class="cls-6" d="M110.682,168.186a57.293,57.293,0,0,1-45.819-24.044c-15.652-21.811-12.852-39.175-12.852-39.175s.677-10.079-9.614-10.662c0,0-9.378.7-10.525,8.023a57.927,57.927,0,0,0,.945,25.178c.939,1.41,3.224,3.911,9.1,6.255,4.659,1.861.327,7.393.327,7.393a6.61,6.61,0,0,0-.916,4.193,70.165,70.165,0,0,0,7.043,8.382s24.616,26.74,62.313,14.457Z" transform="translate(-18.25 -22.554)"/><path class="cls-6" d="M20.928,148.356a9.841,9.841,0,1,0,.42-13.895,9.868,9.868,0,0,0-.42,13.895" transform="translate(-18.25 -22.554)"/></g></svg>